<?xml version="1.0" encoding="UTF-8"?>
<svg width="108" height="108" viewBox="0 0 108 108" xmlns="http://www.w3.org/2000/svg">
  <defs>
    <!-- Gradient for shield depth -->
    <linearGradient id="shieldGradient" x1="0%" y1="0%" x2="100%" y2="100%">
      <stop offset="0%" style="stop-color:#0F3460;stop-opacity:1" />
      <stop offset="100%" style="stop-color:#16213E;stop-opacity:1" />
    </linearGradient>
    
    <!-- Gradient for storage icon -->
    <linearGradient id="storageGradient" x1="0%" y1="0%" x2="100%" y2="100%">
      <stop offset="0%" style="stop-color:#E94560;stop-opacity:1" />
      <stop offset="100%" style="stop-color:#F5F5F5;stop-opacity:0.3" />
    </linearGradient>
    
    <!-- Drop shadow filter -->
    <filter id="dropShadow" x="-20%" y="-20%" width="140%" height="140%">
      <feDropShadow dx="2" dy="4" stdDeviation="3" flood-color="#1A1A2E" flood-opacity="0.3"/>
    </filter>
  </defs>
  
  <!-- Background circle for adaptive icon -->
  <circle cx="54" cy="54" r="54" fill="#1A1A2E"/>
  
  <!-- Main shield shape -->
  <path d="M54 12 C42 12, 32 18, 32 28 L32 58 C32 78, 54 96, 54 96 C54 96, 76 78, 76 58 L76 28 C76 18, 66 12, 54 12 Z" 
        fill="url(#shieldGradient)" 
        filter="url(#dropShadow)" 
        stroke="#F5F5F5" 
        stroke-width="0.5" 
        stroke-opacity="0.3"/>
  
  <!-- Storage folder icon inside shield -->
  <g transform="translate(54, 50)">
    <!-- Folder back -->
    <path d="M-12 -8 L-12 -4 L-6 -8 L12 -8 L12 8 L-12 8 Z" 
          fill="url(#storageGradient)" 
          opacity="0.9"/>
    
    <!-- Folder tab -->
    <path d="M-12 -8 L-6 -8 L-6 -4 L-12 -4 Z" 
          fill="#F5F5F5" 
          opacity="0.8"/>
    
    <!-- Cleaning sparkle effects -->
    <circle cx="8" cy="-4" r="1.5" fill="#F5F5F5" opacity="0.9">
      <animate attributeName="opacity" values="0.9;0.3;0.9" dur="2s" repeatCount="indefinite"/>
    </circle>
    <circle cx="6" cy="4" r="1" fill="#F5F5F5" opacity="0.7">
      <animate attributeName="opacity" values="0.7;0.2;0.7" dur="2.5s" repeatCount="indefinite"/>
    </circle>
    <circle cx="-8" cy="2" r="0.8" fill="#F5F5F5" opacity="0.6">
      <animate attributeName="opacity" values="0.6;0.1;0.6" dur="3s" repeatCount="indefinite"/>
    </circle>
  </g>
  
  <!-- Subtle highlight on shield edge -->
  <path d="M54 12 C52 12, 50 12.5, 48 13 C50 12.2, 52 12, 54 12 C56 12, 58 12.2, 60 13 C58 12.5, 56 12, 54 12 Z" 
        fill="#F5F5F5" 
        opacity="0.4"/>
</svg>